<?xml version="1.0" encoding="utf-8"?>
<!-- Generator: Adobe Illustrator 19.2.0, SVG Export Plug-In . SVG Version: 6.00 Build 0)  -->
<svg version="1.1" id="katman_1" xmlns="http://www.w3.org/2000/svg" xmlns:xlink="http://www.w3.org/1999/xlink" x="0px" y="0px"
	 viewBox="0 0 507.6 668" style="enable-background:new 0 0 507.6 668;" xml:space="preserve">
<style type="text/css">
	.st0{fill:none;}
	.st1{fill:url(#SVGID_1_);}
	.st2{fill:url(#SVGID_2_);}
	.st3{clip-path:url(#SVGID_4_);}
	.st4{fill:#F5F5F5;}
	.st5{fill:url(#SVGID_5_);}
	.st6{fill:#ECECEC;}
	.st7{opacity:0.34;clip-path:url(#SVGID_7_);fill:url(#SVGID_8_);}
	.st8{fill:url(#SVGID_9_);}
	.st9{fill:url(#SVGID_10_);}
	.st10{clip-path:url(#SVGID_12_);}
	.st11{fill:url(#SVGID_13_);}
	.st12{fill:#1D1D1B;}
	.st13{fill:url(#SVGID_14_);}
	.st14{fill:url(#SVGID_15_);}
	.st15{fill:url(#SVGID_16_);}
	.st16{fill:url(#SVGID_17_);}
	.st17{fill:url(#SVGID_18_);}
	.st18{fill:url(#SVGID_19_);}
</style>
<g>
	<circle class="st0" cx="163.5" cy="280.3" r="12.7"/>
	<circle class="st0" cx="183.2" cy="338.5" r="12.7"/>
	<circle class="st0" cx="177.9" cy="402" r="12.7"/>
	<circle class="st0" cx="218" cy="469.2" r="12.7"/>
	<linearGradient id="SVGID_1_" gradientUnits="userSpaceOnUse" x1="666.4258" y1="78.7118" x2="162.8632" y2="292.469">
		<stop  offset="0.2817" style="stop-color:#1E88E5"/>
		<stop  offset="0.2887" style="stop-color:#1E89E5"/>
		<stop  offset="0.4327" style="stop-color:#22A4E0"/>
		<stop  offset="0.5799" style="stop-color:#24B7DD"/>
		<stop  offset="0.731" style="stop-color:#26C2DB"/>
		<stop  offset="0.892" style="stop-color:#26C6DA"/>
		<stop  offset="1" style="stop-color:#00BF25"/>
	</linearGradient>
	<path class="st1" d="M377.7,293.3c-7.9-54.9-70.9-84.3-96.9-94.1c1.2-5.3,1.9-10.6,1.9-15.9c18.5-2.3,35.1-7.1,49.4-14.1
		c18.7-9.2,32.2-27.4,37-49.9c2.6-12,5.4-34.8-4.2-53c-7-13.3-19.9-14.9-31.3-16.3l-0.2,0c-16.1-2-32.5-2.6-47.9-2.9
		c-6.9-0.1-13.3-0.2-19.4-0.2c-14.6,0-27.7,0.4-40,1.3c-1.5,0.1-3.2,0.2-5,0.3c-11.4,0.5-27,1.2-35,10.2c-0.3,0.4-0.7,0.8-1,1.2
		c-0.4,0.5-0.8,1-1.2,1.6c-9.4,14.3-6,36.1-3.6,52c0.2,1.3,0.6,4.2,0.6,4.2c2.7,18,6.3,42.5,22.8,54.7c11.8,8.7,27.9,12.7,51,12.7
		c0.7,0,1.4,0,2.1,0c-1,17.2-12.6,49.8-79,75.7c-4.9-3.5-10.9-5.2-17.1-4.5c-11.2,1.2-20.2,10.3-21.5,21.5
		c-1.6,14.7,9.9,27.1,24.2,27.1c12.1,0,22.2-8.9,24.1-20.4c40.7-16,68.8-36.6,83.4-61.4c5.3,2,12.5,5,20.5,8.9
		c-17.3,20.8-58.7,67.7-95.1,86.2c-6.7-4.2-15.2-5.1-23.1-1.7c-7.2,3.2-12.5,9.9-13.9,17.7c-2.8,15.4,9,28.9,24,28.9
		c12.6,0,23-9.6,24.2-21.9c43.1-21.8,88.9-74.7,106.3-96.1c7,4.8,13.2,9.9,18.4,15.2c-15.9,21.3-71.1,89.9-140.9,121.5
		c-6.9-4.3-15.9-5-23.8-1c-7.6,3.8-12.7,11.5-13.3,20c-1,14.2,10.3,26.1,24.3,26.1c12.7,0,23.2-9.8,24.3-22.2
		c69.4-31.7,123.6-94.9,144.9-122.4c2.2,4.9,3.7,9.8,4.4,14.9c6,41.4-36.9,93.3-124.1,150c-3.3-1.5-6.9-2.3-10.5-2.3
		c-13,0.1-23.9,10.8-24.2,23.8c-0.3,13.7,10.7,24.9,24.4,24.9c13.4,0,24.4-10.9,24.4-24.4c0-0.2,0-0.4,0-0.6
		C339.7,404.9,385.3,346,377.7,293.3z M166.4,292.7c-9.3,2.1-17.3-6-15.3-15.3c1-4.7,4.8-8.4,9.5-9.5c9.3-2.1,17.3,6,15.3,15.3
		C174.9,287.9,171.1,291.7,166.4,292.7z M256.7,152.5c-9.6,0-18.3-1.1-25.8-3.3c-5.8-1.7-7.9-3-9.3-5.9c-1.8-3.6-3.1-7.4-4.1-11.1
		h40.3c-4-4.2-6.4-9.8-6.4-16.1c0-6.5,2.7-12.4,6.9-16.6h-46.5c-0.2-2.8-0.4-5.6-0.4-8.3l0-0.6c-0.1-2.8-0.1-5.6,0.1-8.2
		c3.6-0.7,6.3-0.9,10.8-1.3l1.1-0.1c15.4-1.3,30.8-1.5,42.4-1.5l3.4,0c20.1,0,45.6,0.5,67.6,4.1c0.8,3,1.8,8.4,1.9,12.1
		c0,1.3,0,2.6,0,3.8h-47.5c4.3,4.2,6.9,10.1,6.9,16.6c0,6.2-2.5,11.9-6.4,16.1l36,0l0,0c-10,11.3-28.2,15.5-46.3,18.3
		C272.6,151.8,264.2,152.5,256.7,152.5z M186.1,350.9c-9.3,2.1-17.3-6-15.3-15.3c1-4.7,4.8-8.4,9.5-9.5c9.3-2.1,17.3,6,15.3,15.3
		C194.6,346.1,190.8,349.8,186.1,350.9z M180.8,414.4c-9.3,2.1-17.3-6-15.3-15.3c1-4.7,4.8-8.4,9.5-9.5c9.3-2.1,17.3,6,15.3,15.3
		C189.2,409.6,185.5,413.4,180.8,414.4z M220.9,481.6c-9.3,2.1-17.3-6-15.3-15.3c1-4.7,4.8-8.4,9.5-9.5c9.3-2.1,17.3,6,15.3,15.3
		C229.4,476.8,225.6,480.6,220.9,481.6z"/>
	<linearGradient id="SVGID_2_" gradientUnits="userSpaceOnUse" x1="400.8644" y1="48.0866" x2="198.9142" y2="157.0862">
		<stop  offset="0.2817" style="stop-color:#1E88E5"/>
		<stop  offset="0.2887" style="stop-color:#1E89E5"/>
		<stop  offset="0.4327" style="stop-color:#22A4E0"/>
		<stop  offset="0.5799" style="stop-color:#24B7DD"/>
		<stop  offset="0.731" style="stop-color:#26C2DB"/>
		<stop  offset="0.892" style="stop-color:#26C6DA"/>
		<stop  offset="1" style="stop-color:#00BF25"/>
	</linearGradient>
	<path class="st2" d="M282.2,99.5h-14.9c-6.4,2.8-10.8,9.2-10.8,16.6c0,7,3.9,13,9.7,16.1h17.1c5.7-3.1,9.7-9.1,9.7-16.1
		C293,108.7,288.6,102.4,282.2,99.5z"/>
</g>
<g>
	<defs>
		<path id="SVGID_3_" d="M377.7,293.3c-7.9-54.9-70.9-84.3-96.9-94.1c1.2-5.3,1.9-10.6,1.9-15.9c18.5-2.3,35.1-7.1,49.4-14.1
			c18.7-9.2,32.2-27.4,37-49.9c2.6-12,5.4-34.8-4.2-53c-7-13.3-19.9-14.9-31.3-16.3l-0.2,0c-16.1-2-32.5-2.6-47.9-2.9
			c-6.9-0.1-13.3-0.2-19.4-0.2c-14.6,0-27.7,0.4-40,1.3c-1.5,0.1-3.2,0.2-5,0.3c-11.4,0.5-27,1.2-35,10.2c-0.3,0.4-0.7,0.8-1,1.2
			c-0.4,0.5-0.8,1-1.2,1.6c-9.4,14.3-6,36.1-3.6,52c0.2,1.3,0.6,4.2,0.6,4.2c2.7,18,6.3,42.5,22.8,54.7c11.8,8.7,27.9,12.7,51,12.7
			c0.7,0,1.4,0,2.1,0c-1,17.2-12.6,49.8-79,75.7c-4.9-3.5-10.9-5.2-17.1-4.5c-11.2,1.2-20.2,10.3-21.5,21.5
			c-1.6,14.7,9.9,27.1,24.2,27.1c12.1,0,22.2-8.9,24.1-20.4c40.7-16,68.8-36.6,83.4-61.4c5.3,2,12.5,5,20.5,8.9
			c-17.3,20.8-58.7,67.7-95.1,86.2c-6.7-4.2-15.2-5.1-23.1-1.7c-7.2,3.2-12.5,9.9-13.9,17.7c-2.8,15.4,9,28.9,24,28.9
			c12.6,0,23-9.6,24.2-21.9c43.1-21.8,88.9-74.7,106.3-96.1c7,4.8,13.2,9.9,18.4,15.2c-15.9,21.3-71.1,89.9-140.9,121.5
			c-6.9-4.3-15.9-5-23.8-1c-7.6,3.8-12.7,11.5-13.3,20c-1,14.2,10.3,26.1,24.3,26.1c12.7,0,23.2-9.8,24.3-22.2
			c69.4-31.7,123.6-94.9,144.9-122.4c2.2,4.9,3.7,9.8,4.4,14.9c6,41.4-36.9,93.3-124.1,150c-3.3-1.5-6.9-2.3-10.5-2.3
			c-13,0.1-23.9,10.8-24.2,23.8c-0.3,13.7,10.7,24.9,24.4,24.9c13.4,0,24.4-10.9,24.4-24.4c0-0.2,0-0.4,0-0.6
			C339.7,404.9,385.3,346,377.7,293.3z M166.4,292.7c-9.3,2.1-17.3-6-15.3-15.3c1-4.7,4.8-8.4,9.5-9.5c9.3-2.1,17.3,6,15.3,15.3
			C174.9,287.9,171.1,291.7,166.4,292.7z M256.7,152.5c-9.6,0-18.3-1.1-25.8-3.3c-5.8-1.7-7.9-3-9.3-5.9c-1.8-3.6-3.1-7.4-4.1-11.1
			h40.3c-4-4.2-6.4-9.8-6.4-16.1c0-6.5,2.7-12.4,6.9-16.6h-46.5c-0.2-2.8-0.4-5.6-0.4-8.3l0-0.6c-0.1-2.8-0.1-5.6,0.1-8.2
			c3.6-0.7,6.3-0.9,10.8-1.3l1.1-0.1c15.4-1.3,30.8-1.5,42.4-1.5l3.4,0c20.1,0,45.6,0.5,67.6,4.1c0.8,3,1.8,8.4,1.9,12.1
			c0,1.3,0,2.6,0,3.8h-47.5c4.3,4.2,6.9,10.1,6.9,16.6c0,6.2-2.5,11.9-6.4,16.1l36,0l0,0c-10,11.3-28.2,15.5-46.3,18.3
			C272.6,151.8,264.2,152.5,256.7,152.5z M186.1,350.9c-9.3,2.1-17.3-6-15.3-15.3c1-4.7,4.8-8.4,9.5-9.5c9.3-2.1,17.3,6,15.3,15.3
			C194.6,346.1,190.8,349.8,186.1,350.9z M180.8,414.4c-9.3,2.1-17.3-6-15.3-15.3c1-4.7,4.8-8.4,9.5-9.5c9.3-2.1,17.3,6,15.3,15.3
			C189.2,409.6,185.5,413.4,180.8,414.4z M220.9,481.6c-9.3,2.1-17.3-6-15.3-15.3c1-4.7,4.8-8.4,9.5-9.5c9.3-2.1,17.3,6,15.3,15.3
			C229.4,476.8,225.6,480.6,220.9,481.6z"/>
	</defs>
	<clipPath id="SVGID_4_">
		<use xlink:href="#SVGID_3_"  style="overflow:visible;"/>
	</clipPath>
	<g class="st3">
		<rect x="294.6" y="109.1" class="st4" width="77.4" height="14"/>
	</g>
	<g class="st3">
		<rect x="175" y="109.1" class="st4" width="77.4" height="14"/>
	</g>
</g>
<g>
	<linearGradient id="SVGID_5_" gradientUnits="userSpaceOnUse" x1="175.4448" y1="768.3626" x2="154.4965" y2="450.8304">
		<stop  offset="0.2817" style="stop-color:#1E88E5"/>
		<stop  offset="0.2887" style="stop-color:#1E89E5"/>
		<stop  offset="0.4327" style="stop-color:#22A4E0"/>
		<stop  offset="0.5799" style="stop-color:#24B7DD"/>
		<stop  offset="0.731" style="stop-color:#26C2DB"/>
		<stop  offset="0.892" style="stop-color:#26C6DA"/>
		<stop  offset="1" style="stop-color:#00BF25"/>
	</linearGradient>
	<path class="st5" d="M186.4,557v9.7h-34.8V584h31.2v9.6h-31.2v17.6h35.9v9.7h-46.7V557H186.4z"/>
	<linearGradient id="SVGID_7_" gradientUnits="userSpaceOnUse" x1="228.6362" y1="764.8535" x2="207.6879" y2="447.3213">
		<stop  offset="0.2817" style="stop-color:#1E88E5"/>
		<stop  offset="0.2887" style="stop-color:#1E89E5"/>
		<stop  offset="0.4327" style="stop-color:#22A4E0"/>
		<stop  offset="0.5799" style="stop-color:#24B7DD"/>
		<stop  offset="0.731" style="stop-color:#26C2DB"/>
		<stop  offset="0.892" style="stop-color:#26C6DA"/>
		<stop  offset="1" style="stop-color:#00BF25"/>
	</linearGradient>
	<path style="fill:url(#SVGID_7_);" d="M229,620.8v-5.9c-3.5,4.3-9,6.4-16,6.4c-10.5,0-17-6.5-17-15c0-8.8,6.7-14.5,18.3-14.6h14.7
		v-1.5c0-6.1-3.9-9.8-11.6-9.8c-4.6,0-9.5,1.6-14.3,4.9l-4.3-7.3c6.7-4,11.7-6.1,20.9-6.1c12.5,0,19.5,6.4,19.6,17l0.1,31.8H229z
		 M228.9,603.8v-4.5h-13.1c-6.8,0-10,1.8-10,6.5c0,4.4,3.6,7.2,9.4,7.2C222.7,613,228.4,609,228.9,603.8z"/>
	<linearGradient id="SVGID_8_" gradientUnits="userSpaceOnUse" x1="277.1296" y1="761.6542" x2="256.1813" y2="444.1221">
		<stop  offset="0.2817" style="stop-color:#1E88E5"/>
		<stop  offset="0.2887" style="stop-color:#1E89E5"/>
		<stop  offset="0.4327" style="stop-color:#22A4E0"/>
		<stop  offset="0.5799" style="stop-color:#24B7DD"/>
		<stop  offset="0.731" style="stop-color:#26C2DB"/>
		<stop  offset="0.892" style="stop-color:#26C6DA"/>
		<stop  offset="1" style="stop-color:#00BF25"/>
	</linearGradient>
	<path style="fill:url(#SVGID_8_);" d="M267,580.2c-4.1,0-7.1,1.4-7.1,4.8c0,8.9,25.8,4.1,25.7,21.7c0,9.9-8.8,14.4-18.6,14.4
		c-7.1,0-14.7-2.4-19.5-6.7l3.7-7.5c4.2,3.7,10.9,6,16.2,6c4.5,0,7.9-1.5,7.9-5.2c0-9.9-25.5-4.4-25.4-21.9c0-9.8,8.6-14,17.9-14
		c6.1,0,12.6,1.8,17,4.9l-3.8,7.7C276.7,581.9,271.3,580.2,267,580.2z"/>
	<linearGradient id="SVGID_9_" gradientUnits="userSpaceOnUse" x1="326.0117" y1="758.4294" x2="305.0634" y2="440.8972">
		<stop  offset="0.2817" style="stop-color:#1E88E5"/>
		<stop  offset="0.2887" style="stop-color:#1E89E5"/>
		<stop  offset="0.4327" style="stop-color:#22A4E0"/>
		<stop  offset="0.5799" style="stop-color:#24B7DD"/>
		<stop  offset="0.731" style="stop-color:#26C2DB"/>
		<stop  offset="0.892" style="stop-color:#26C6DA"/>
		<stop  offset="1" style="stop-color:#00BF25"/>
	</linearGradient>
	<path class="st8" d="M338.9,600.6h-36.6c1.6,7.5,7.4,12.1,15,12.1c5.3,0,10.1-2,13.7-5.7l5.6,5.9c-4.7,5.2-11.7,8.2-20,8.2
		c-14.9,0-24.8-9.9-24.8-24.5c0-14.7,10.1-24.6,24.5-24.7C333.2,571.9,340.1,583.1,338.9,600.6z M329.7,592.9
		c-0.4-7.8-5.6-12.6-13.5-12.6c-7.7,0-13.1,4.8-14.2,12.6H329.7z"/>
	<linearGradient id="SVGID_10_" gradientUnits="userSpaceOnUse" x1="373.8945" y1="755.2704" x2="352.9462" y2="437.7383">
		<stop  offset="0.2817" style="stop-color:#1E88E5"/>
		<stop  offset="0.2887" style="stop-color:#1E89E5"/>
		<stop  offset="0.4327" style="stop-color:#22A4E0"/>
		<stop  offset="0.5799" style="stop-color:#24B7DD"/>
		<stop  offset="0.731" style="stop-color:#26C2DB"/>
		<stop  offset="0.892" style="stop-color:#26C6DA"/>
		<stop  offset="1" style="stop-color:#00BF25"/>
	</linearGradient>
	<path class="st9" d="M377,571.9v10c-9.8-0.5-15.9,5.2-16.8,13.5v25.3h-10.5v-48.5h10.5v9.7C363.5,575.4,369.4,571.9,377,571.9z"/>
</g>
</svg>
