<?xml version="1.0" encoding="utf-8"?>
<!-- Generator: Adobe Illustrator 19.2.0, SVG Export Plug-In . SVG Version: 6.00 Build 0)  -->
<svg version="1.1" id="katman_1" xmlns="http://www.w3.org/2000/svg" xmlns:xlink="http://www.w3.org/1999/xlink" x="0px" y="0px"
	 viewBox="0 0 887.3 668" style="enable-background:new 0 0 887.3 668;" xml:space="preserve">
<style type="text/css">
	.st0{fill:none;}
	.st1{fill:url(#SVGID_1_);}
	.st2{fill:url(#SVGID_2_);}
	.st3{clip-path:url(#SVGID_4_);}
	.st4{fill:#F5F5F5;}
	.st5{fill:url(#SVGID_5_);}
	.st6{fill:#ECECEC;}
	.st7{opacity:0.34;clip-path:url(#SVGID_7_);fill:url(#SVGID_8_);}
	.st8{fill:url(#SVGID_9_);}
	.st9{fill:url(#SVGID_10_);}
	.st10{clip-path:url(#SVGID_12_);}
	.st11{fill:url(#SVGID_13_);}
	.st12{fill:#1D1D1B;}
	.st13{fill:url(#SVGID_14_);}
	.st14{fill:url(#SVGID_15_);}
	.st15{fill:url(#SVGID_16_);}
	.st16{fill:url(#SVGID_17_);}
	.st17{fill:url(#SVGID_18_);}
	.st18{fill:url(#SVGID_19_);}
</style>
<g>
	<g>
		<path class="st6" d="M379.7,26h128c41.9,0,76.2,34.3,76.2,76.2v128c0,41.9-34.3,76.2-76.2,76.2h-128c-41.9,0-76.2-34.3-76.2-76.2
			v-128C303.6,60.3,337.8,26,379.7,26z"/>
		<g>
			<defs>
				<path id="SVGID_6_" d="M379.6,25.7h128c41.9,0,76.2,34.3,76.2,76.2v128c0,41.9-34.3,76.2-76.2,76.2h-128
					c-41.9,0-76.2-34.3-76.2-76.2v-128C303.4,60,337.7,25.7,379.6,25.7z"/>
			</defs>
			<clipPath id="SVGID_1_">
				<use xlink:href="#SVGID_6_"  style="overflow:visible;"/>
			</clipPath>
			<linearGradient id="SVGID_2_" gradientUnits="userSpaceOnUse" x1="228.2984" y1="-28.3228" x2="549.5049" y2="221.1106">
				<stop  offset="0" style="stop-color:#1D1D1B"/>
				<stop  offset="1" style="stop-color:#000000;stop-opacity:0"/>
			</linearGradient>
			<path style="opacity:0.34;clip-path:url(#SVGID_1_);fill:url(#SVGID_2_);" d="M644.5,140.4L486.6,60.6l-23.3,2.6l26.8,7.1
				l-7.5,34.6l-33.5,12.7l-1.5,18.9l19.5,7.7l20.7,17.9l6.8,30.8l-23.9,34.4l-41.5,36.5c-1.7,1.4-2,4.1-3.7,5.5
				c-2.2,1.8-6.4,1.7-8.6,3.4c42.2,21.5,85,43.5,127.1,65L644.5,140.4z"/>
		</g>
	</g>
	<g>
		<circle class="st0" cx="395.8" cy="171.5" r="6.3"/>
		<circle class="st0" cx="405.6" cy="200.5" r="6.3"/>
		<circle class="st0" cx="403" cy="232.2" r="6.3"/>
		<circle class="st0" cx="423" cy="265.7" r="6.3"/>
		<linearGradient id="SVGID_4_" gradientUnits="userSpaceOnUse" x1="646.4762" y1="71.0082" x2="395.4639" y2="177.5604">
			<stop  offset="0.2817" style="stop-color:#1E88E5"/>
			<stop  offset="0.2887" style="stop-color:#1E89E5"/>
			<stop  offset="0.4327" style="stop-color:#22A4E0"/>
			<stop  offset="0.5799" style="stop-color:#24B7DD"/>
			<stop  offset="0.731" style="stop-color:#26C2DB"/>
			<stop  offset="0.892" style="stop-color:#26C6DA"/>
			<stop  offset="1" style="stop-color:#00BF25"/>
		</linearGradient>
		<path style="fill:url(#SVGID_4_);" d="M502.5,178c-4-27.4-35.3-42-48.3-46.9c0.6-2.6,0.9-5.3,0.9-7.9c9.2-1.2,17.5-3.5,24.6-7
			c9.3-4.6,16.1-13.7,18.5-24.9c1.3-6,2.7-17.3-2.1-26.4c-3.5-6.6-9.9-7.4-15.6-8.1l-0.1,0c-8-1-16.2-1.3-23.9-1.5
			c-3.5-0.1-6.6-0.1-9.7-0.1c-7.3,0-13.8,0.2-19.9,0.6c-0.7,0.1-1.6,0.1-2.5,0.1c-5.7,0.2-13.5,0.6-17.4,5.1
			c-0.2,0.2-0.3,0.4-0.5,0.6c-0.2,0.2-0.4,0.5-0.6,0.8c-4.7,7.1-3,18-1.8,25.9c0.1,0.6,0.3,2.1,0.3,2.1c1.3,9,3.1,21.2,11.4,27.3
			c5.9,4.3,13.9,6.4,25.4,6.4c0.4,0,0.7,0,1.1,0c-0.5,8.6-6.3,24.8-39.4,37.7c-2.4-1.8-5.4-2.6-8.5-2.2c-5.6,0.6-10.1,5.1-10.7,10.7
			c-0.8,7.3,4.9,13.5,12.1,13.5c6,0,11-4.4,12-10.2c20.3-8,34.3-18.2,41.6-30.6c2.6,1,6.2,2.5,10.2,4.5c-8.6,10.4-29.3,33.8-47.4,43
			c-3.3-2.1-7.6-2.6-11.5-0.8c-3.6,1.6-6.2,4.9-6.9,8.8c-1.4,7.7,4.5,14.4,11.9,14.4c6.3,0,11.5-4.8,12.1-10.9
			c21.5-10.9,44.3-37.2,53-47.9c3.5,2.4,6.6,4.9,9.1,7.6c-7.9,10.6-35.4,44.8-70.2,60.6c-3.5-2.1-7.9-2.5-11.9-0.5
			c-3.8,1.9-6.3,5.7-6.6,10c-0.5,7.1,5.1,13,12.1,13c6.3,0,11.5-4.9,12.1-11.1c34.6-15.8,61.6-47.3,72.3-61c1.1,2.4,1.8,4.9,2.2,7.4
			c3,20.7-18.4,46.5-61.9,74.8c-1.6-0.8-3.4-1.2-5.2-1.2c-6.5,0-11.9,5.4-12.1,11.9c-0.1,6.8,5.4,12.4,12.1,12.4
			c6.7,0,12.1-5.4,12.1-12.1c0-0.1,0-0.2,0-0.3C483.6,233.6,506.3,204.2,502.5,178z M397.2,177.7c-4.6,1-8.6-3-7.6-7.6
			c0.5-2.3,2.4-4.2,4.7-4.7c4.6-1,8.6,3,7.6,7.6C401.4,175.3,399.6,177.2,397.2,177.7z M442.2,107.8c-4.8,0-9.1-0.6-12.9-1.6
			c-2.9-0.8-3.9-1.5-4.6-2.9c-0.9-1.8-1.5-3.7-2-5.5h20.1c-2-2.1-3.2-4.9-3.2-8c0-3.2,1.3-6.2,3.5-8.3h-23.2
			c-0.1-1.4-0.2-2.8-0.2-4.1l0-0.3c0-1.4-0.1-2.8,0-4.1c1.8-0.3,3.1-0.4,5.4-0.6l0.6,0c7.7-0.6,15.3-0.7,21.1-0.7l1.7,0
			c10,0,22.7,0.2,33.7,2c0.4,1.5,0.9,4.2,0.9,6c0,0.6,0,1.3,0,1.9h-23.7c2.1,2.1,3.5,5,3.5,8.3c0,3.1-1.2,5.9-3.2,8l18,0l0,0
			c-5,5.6-14.1,7.7-23.1,9.1C450.1,107.5,446,107.8,442.2,107.8z M407.1,206.7c-4.6,1-8.6-3-7.6-7.6c0.5-2.3,2.4-4.2,4.7-4.7
			c4.6-1,8.6,3,7.6,7.6C411.3,204.3,409.4,206.2,407.1,206.7z M404.4,238.3c-4.6,1-8.6-3-7.6-7.6c0.5-2.3,2.4-4.2,4.7-4.7
			c4.6-1,8.6,3,7.6,7.6C408.6,235.9,406.7,237.8,404.4,238.3z M424.4,271.8c-4.6,1-8.6-3-7.6-7.6c0.5-2.3,2.4-4.2,4.7-4.7
			c4.6-1,8.6,3,7.6,7.6C428.6,269.4,426.7,271.3,424.4,271.8z"/>
		<linearGradient id="SVGID_5_" gradientUnits="userSpaceOnUse" x1="514.1011" y1="55.7424" x2="413.4344" y2="110.0758">
			<stop  offset="0.2817" style="stop-color:#1E88E5"/>
			<stop  offset="0.2887" style="stop-color:#1E89E5"/>
			<stop  offset="0.4327" style="stop-color:#22A4E0"/>
			<stop  offset="0.5799" style="stop-color:#24B7DD"/>
			<stop  offset="0.731" style="stop-color:#26C2DB"/>
			<stop  offset="0.892" style="stop-color:#26C6DA"/>
			<stop  offset="1" style="stop-color:#00BF25"/>
		</linearGradient>
		<path class="st5" d="M455,81.4h-7.4c-3.2,1.4-5.4,4.6-5.4,8.3c0,3.5,2,6.5,4.8,8h8.5c2.9-1.5,4.8-4.5,4.8-8
			C460.3,86,458.1,82.8,455,81.4z"/>
	</g>
	<g>
		<defs>
			<path id="SVGID_11_" d="M502.5,178c-4-27.4-35.3-42-48.3-46.9c0.6-2.6,0.9-5.3,0.9-7.9c9.2-1.2,17.5-3.5,24.6-7
				c9.3-4.6,16.1-13.7,18.5-24.9c1.3-6,2.7-17.3-2.1-26.4c-3.5-6.6-9.9-7.4-15.6-8.1l-0.1,0c-8-1-16.2-1.3-23.9-1.5
				c-3.5-0.1-6.6-0.1-9.7-0.1c-7.3,0-13.8,0.2-19.9,0.6c-0.7,0.1-1.6,0.1-2.5,0.1c-5.7,0.2-13.5,0.6-17.4,5.1
				c-0.2,0.2-0.3,0.4-0.5,0.6c-0.2,0.2-0.4,0.5-0.6,0.8c-4.7,7.1-3,18-1.8,25.9c0.1,0.6,0.3,2.1,0.3,2.1c1.3,9,3.1,21.2,11.4,27.3
				c5.9,4.3,13.9,6.4,25.4,6.4c0.4,0,0.7,0,1.1,0c-0.5,8.6-6.3,24.8-39.4,37.7c-2.4-1.8-5.4-2.6-8.5-2.2
				c-5.6,0.6-10.1,5.1-10.7,10.7c-0.8,7.3,4.9,13.5,12.1,13.5c6,0,11-4.4,12-10.2c20.3-8,34.3-18.2,41.6-30.6
				c2.6,1,6.2,2.5,10.2,4.5c-8.6,10.4-29.3,33.8-47.4,43c-3.3-2.1-7.6-2.6-11.5-0.8c-3.6,1.6-6.2,4.9-6.9,8.8
				c-1.4,7.7,4.5,14.4,11.9,14.4c6.3,0,11.5-4.8,12.1-10.9c21.5-10.9,44.3-37.2,53-47.9c3.5,2.4,6.6,4.9,9.1,7.6
				c-7.9,10.6-35.4,44.8-70.2,60.6c-3.5-2.1-7.9-2.5-11.9-0.5c-3.8,1.9-6.3,5.7-6.6,10c-0.5,7.1,5.1,13,12.1,13
				c6.3,0,11.5-4.9,12.1-11.1c34.6-15.8,61.6-47.3,72.3-61c1.1,2.4,1.8,4.9,2.2,7.4c3,20.7-18.4,46.5-61.9,74.8
				c-1.6-0.8-3.4-1.2-5.2-1.2c-6.5,0-11.9,5.4-12.1,11.9c-0.1,6.8,5.4,12.4,12.1,12.4c6.7,0,12.1-5.4,12.1-12.1c0-0.1,0-0.2,0-0.3
				C483.6,233.6,506.3,204.2,502.5,178z M397.2,177.7c-4.6,1-8.6-3-7.6-7.6c0.5-2.3,2.4-4.2,4.7-4.7c4.6-1,8.6,3,7.6,7.6
				C401.4,175.3,399.6,177.2,397.2,177.7z M442.2,107.8c-4.8,0-9.1-0.6-12.9-1.6c-2.9-0.8-3.9-1.5-4.6-2.9c-0.9-1.8-1.5-3.7-2-5.5
				h20.1c-2-2.1-3.2-4.9-3.2-8c0-3.2,1.3-6.2,3.5-8.3h-23.2c-0.1-1.4-0.2-2.8-0.2-4.1l0-0.3c0-1.4-0.1-2.8,0-4.1
				c1.8-0.3,3.1-0.4,5.4-0.6l0.6,0c7.7-0.6,15.3-0.7,21.1-0.7l1.7,0c10,0,22.7,0.2,33.7,2c0.4,1.5,0.9,4.2,0.9,6c0,0.6,0,1.3,0,1.9
				h-23.7c2.1,2.1,3.5,5,3.5,8.3c0,3.1-1.2,5.9-3.2,8l18,0l0,0c-5,5.6-14.1,7.7-23.1,9.1C450.1,107.5,446,107.8,442.2,107.8z
				 M407.1,206.7c-4.6,1-8.6-3-7.6-7.6c0.5-2.3,2.4-4.2,4.7-4.7c4.6-1,8.6,3,7.6,7.6C411.3,204.3,409.4,206.2,407.1,206.7z
				 M404.4,238.3c-4.6,1-8.6-3-7.6-7.6c0.5-2.3,2.4-4.2,4.7-4.7c4.6-1,8.6,3,7.6,7.6C408.6,235.9,406.7,237.8,404.4,238.3z
				 M424.4,271.8c-4.6,1-8.6-3-7.6-7.6c0.5-2.3,2.4-4.2,4.7-4.7c4.6-1,8.6,3,7.6,7.6C428.6,269.4,426.7,271.3,424.4,271.8z"/>
		</defs>
		<clipPath id="SVGID_7_">
			<use xlink:href="#SVGID_11_"  style="overflow:visible;"/>
		</clipPath>
		<g style="clip-path:url(#SVGID_7_);">
			<rect x="461.1" y="86.2" class="st4" width="38.6" height="7"/>
		</g>
		<g style="clip-path:url(#SVGID_7_);">
			<rect x="401.5" y="86.2" class="st4" width="38.6" height="7"/>
		</g>
	</g>
</g>
<g>
	<g>
		<circle class="st0" cx="182" cy="498.8" r="6.3"/>
		<circle class="st0" cx="191.8" cy="527.8" r="6.3"/>
		<circle class="st0" cx="189.1" cy="559.5" r="6.3"/>
		<circle class="st0" cx="209.1" cy="593" r="6.3"/>
		<g>
			<path class="st6" d="M190.4,521.6c-2.3,0.5-4.2,2.4-4.7,4.7c-1,4.6,3,8.6,7.6,7.6c2.3-0.5,4.2-2.4,4.7-4.7
				C199,524.6,195,520.6,190.4,521.6z"/>
			<path class="st6" d="M187.7,553.3c-2.3,0.5-4.2,2.4-4.7,4.7c-1,4.6,3,8.6,7.6,7.6c2.3-0.5,4.2-2.4,4.7-4.7
				C196.3,556.3,192.3,552.3,187.7,553.3z"/>
			<path class="st6" d="M180.5,492.6c-2.3,0.5-4.2,2.4-4.7,4.7c-1,4.6,3,8.6,7.6,7.6c2.3-0.5,4.2-2.4,4.7-4.7
				C189.2,495.6,185.1,491.6,180.5,492.6z"/>
			<path class="st6" d="M207.7,586.8c-2.3,0.5-4.2,2.4-4.7,4.7c-1,4.6,3,8.6,7.6,7.6c2.3-0.5,4.2-2.4,4.7-4.7
				C216.3,589.8,212.3,585.8,207.7,586.8z"/>
		</g>
	</g>
	<path class="st12" d="M293.9,353.4h-128c-41.9,0-76.2,34.3-76.2,76.2v128c0,41.9,34.3,76.2,76.2,76.2h128
		c41.9,0,76.2-34.3,76.2-76.2v-128C370.1,387.6,335.8,353.4,293.9,353.4z M192.2,389.6c0.2-0.3,0.4-0.5,0.6-0.8
		c0.1-0.2,0.3-0.4,0.5-0.6c4-4.5,11.7-4.9,17.4-5.1c0.9,0,1.8-0.1,2.5-0.1c6.1-0.4,12.7-0.6,19.9-0.6c3,0,6.2,0,9.7,0.1
		c7.7,0.2,15.8,0.5,23.9,1.5l0.1,0c5.7,0.7,12.1,1.5,15.6,8.1c3.7,6.9,3.7,15.2,2.9,21.4h-36.8c-0.6-1.8-1.6-3.5-2.9-4.8h23.7
		c0-0.6,0-1.3,0-1.9c-0.1-1.9-0.5-4.5-0.9-6c-11-1.8-23.7-2-33.7-2l-1.7,0c-5.8,0-13.4,0.1-21.1,0.7l-0.6,0
		c-2.2,0.2-3.6,0.3-5.4,0.6c-0.1,1.3-0.1,2.7,0,4.1l0,0.3c0,1.3,0.1,2.7,0.2,4.1h23.2c-1.4,1.3-2.4,3-3,4.9v-0.1h-36.1
		C189,405.8,188,396.2,192.2,389.6z M246.5,417c0,3.5-2,6.5-4.8,8h-8.5c-2.9-1.5-4.8-4.5-4.8-8c0-3.7,2.2-6.9,5.4-8.3h7.4
		C244.3,410.1,246.5,413.3,246.5,417z M221.2,592.6c0,0.1,0,0.2,0,0.3c0,6.7-5.4,12.1-12.1,12.1c-6.8,0-12.3-5.6-12.1-12.4
		c0.1-6.5,5.6-11.8,12.1-11.9c1.8,0,3.6,0.4,5.2,1.2c43.5-28.3,64.9-54.1,61.9-74.8c-0.4-2.5-1.1-5-2.2-7.4
		c-10.7,13.7-37.7,45.2-72.3,61c-0.6,6.2-5.8,11.1-12.1,11.1c-7,0-12.6-5.9-12.1-13c0.3-4.2,2.9-8.1,6.6-10c4-2,8.4-1.6,11.9,0.5
		c34.8-15.8,62.3-50,70.2-60.6c-2.6-2.6-5.6-5.1-9.1-7.6c-8.7,10.7-31.5,37.1-53,47.9c-0.6,6.1-5.8,10.9-12.1,10.9
		c-7.4,0-13.3-6.7-11.9-14.4c0.7-3.9,3.3-7.2,6.9-8.8c3.9-1.7,8.2-1.3,11.5,0.8c18.1-9.2,38.8-32.6,47.4-43c-4-2-7.6-3.5-10.2-4.5
		c-7.3,12.4-21.3,22.7-41.6,30.6c-0.9,5.8-6,10.2-12,10.2c-7.1,0-12.9-6.2-12.1-13.5c0.6-5.6,5.1-10.1,10.7-10.7
		c3.1-0.3,6.1,0.5,8.5,2.2c33.1-12.9,38.9-29.2,39.4-37.7c-0.4,0-0.7,0-1.1,0c-11.5,0-19.5-2-25.4-6.4c-7.4-5.5-9.6-15.9-10.9-24.5
		h35v-0.1c0.5,1.8,1.5,3.3,2.7,4.6h-20.1c0.5,1.8,1.2,3.8,2,5.5c0.7,1.5,1.8,2.1,4.6,2.9c3.8,1.1,8.1,1.6,12.9,1.6
		c3.8,0,7.9-0.3,12.3-1c9-1.4,18.1-3.5,23.1-9.1v0h-18c1.2-1.3,2.1-2.8,2.7-4.5H284c-2.7,10.3-9.2,18.6-18,22.9
		c-7.1,3.5-15.4,5.9-24.6,7c0,2.6-0.3,5.3-0.9,7.9c13,4.9,44.3,19.5,48.3,46.9C292.5,531.6,269.8,560.9,221.2,592.6z"/>
	<path class="st4" d="M721.4,353.4h-128c-41.9,0-76.2,34.3-76.2,76.2v128c0,41.9,34.3,76.2,76.2,76.2h128
		c41.9,0,76.2-34.3,76.2-76.2v-128C797.5,387.6,763.3,353.4,721.4,353.4z M619.7,389.6c0.2-0.3,0.4-0.5,0.6-0.8
		c0.1-0.2,0.3-0.4,0.5-0.6c4-4.5,11.7-4.9,17.4-5.1c0.9,0,1.8-0.1,2.5-0.1c6.1-0.4,12.7-0.6,19.9-0.6c3,0,6.2,0,9.7,0.1
		c7.7,0.2,15.8,0.5,23.9,1.5l0.1,0c5.7,0.7,12.1,1.5,15.6,8.1c3.7,6.9,3.7,15.2,2.9,21.4H676c-0.6-1.8-1.6-3.5-2.9-4.8h23.7
		c0-0.6,0-1.3,0-1.9c-0.1-1.9-0.5-4.5-0.9-6c-11-1.8-23.7-2-33.7-2l-1.7,0c-5.8,0-13.4,0.1-21.1,0.7l-0.6,0
		c-2.2,0.2-3.6,0.3-5.4,0.6c-0.1,1.3-0.1,2.7,0,4.1l0,0.3c0,1.3,0.1,2.7,0.2,4.1h23.2c-1.4,1.3-2.4,3-3,4.9v-0.1h-36.1
		C616.5,405.8,615.4,396.2,619.7,389.6z M674,417c0,3.5-2,6.5-4.8,8h-8.5c-2.9-1.5-4.8-4.5-4.8-8c0-3.7,2.2-6.9,5.4-8.3h7.4
		C671.8,410.1,674,413.3,674,417z M648.7,592.6c0,0.1,0,0.2,0,0.3c0,6.7-5.4,12.1-12.1,12.1c-6.8,0-12.3-5.6-12.1-12.4
		c0.1-6.5,5.6-11.8,12.1-11.9c1.8,0,3.6,0.4,5.2,1.2c43.5-28.3,64.9-54.1,61.9-74.8c-0.4-2.5-1.1-5-2.2-7.4
		c-10.7,13.7-37.7,45.2-72.3,61c-0.6,6.2-5.8,11.1-12.1,11.1c-7,0-12.6-5.9-12.1-13c0.3-4.2,2.9-8.1,6.6-10c4-2,8.4-1.6,11.9,0.5
		c34.8-15.8,62.3-50,70.2-60.6c-2.6-2.6-5.6-5.1-9.1-7.6c-8.7,10.7-31.5,37.1-53,47.9c-0.6,6.1-5.8,10.9-12.1,10.9
		c-7.4,0-13.3-6.7-11.9-14.4c0.7-3.9,3.3-7.2,6.9-8.8c3.9-1.7,8.2-1.3,11.5,0.8c18.1-9.2,38.8-32.6,47.4-43c-4-2-7.6-3.5-10.2-4.5
		c-7.3,12.4-21.3,22.7-41.6,30.6c-0.9,5.8-6,10.2-12,10.2c-7.1,0-12.9-6.2-12.1-13.5c0.6-5.6,5.1-10.1,10.7-10.7
		c3.1-0.3,6.1,0.5,8.5,2.2c33.1-12.9,38.9-29.2,39.4-37.7c-0.4,0-0.7,0-1.1,0c-11.5,0-19.5-2-25.4-6.4c-7.4-5.5-9.6-15.9-10.9-24.5
		h35v-0.1c0.5,1.8,1.5,3.3,2.7,4.6h-20.1c0.5,1.8,1.2,3.8,2,5.5c0.7,1.5,1.8,2.1,4.6,2.9c3.8,1.1,8.1,1.6,12.9,1.6
		c3.8,0,7.9-0.3,12.3-1c9-1.4,18.1-3.5,23.1-9.1v0h-18c1.2-1.3,2.1-2.8,2.7-4.5h35.5c-2.7,10.3-9.2,18.6-18,22.9
		c-7.1,3.5-15.4,5.9-24.6,7c0,2.6-0.3,5.3-0.9,7.9c13,4.9,44.3,19.5,48.3,46.9C720,531.6,697.3,560.9,648.7,592.6z"/>
</g>
</svg>
